<svg width="30" height="30" viewBox="0 0 30 30" fill="none" xmlns="http://www.w3.org/2000/svg">
<path d="M5 23.3333C5 20 11.6667 18.1667 15 18.1667C18.3333 18.1667 25 20 25 23.3333V25H5V23.3333ZM20 10C20 11.3261 19.4732 12.5979 18.5355 13.5355C17.5979 14.4732 16.3261 15 15 15C13.6739 15 12.4021 14.4732 11.4645 13.5355C10.5268 12.5979 10 11.3261 10 10C10 8.67392 10.5268 7.40215 11.4645 6.46447C12.4021 5.52678 13.6739 5 15 5C16.3261 5 17.5979 5.52678 18.5355 6.46447C19.4732 7.40215 20 8.67392 20 10ZM0 3.33333V26.6667C0 27.5507 0.351189 28.3986 0.976311 29.0237C1.60143 29.6488 2.44928 30 3.33333 30H26.6667C27.5507 30 28.3986 29.6488 29.0237 29.0237C29.6488 28.3986 30 27.5507 30 26.6667V3.33333C30 2.44928 29.6488 1.60143 29.0237 0.976311C28.3986 0.351189 27.5507 0 26.6667 0H3.33333C2.44928 0 1.60143 0.351189 0.976311 0.976311C0.351189 1.60143 0 2.44928 0 3.33333V3.33333Z" fill="#FF3F26"/>
</svg>
