<svg width="70" height="70" viewBox="0 0 70 70" fill="none" xmlns="http://www.w3.org/2000/svg">
<rect width="70" height="70" rx="8" fill="#F9FAFB"/>
<path d="M47.0052 41.6276C47.0052 43.8151 47.6276 44.6875 49.2552 44.6875C52.8828 44.6875 55.1927 40.0651 55.1927 32.3776C55.1927 20.6276 46.6302 15.0026 35.9401 15.0026C24.9427 15.0026 14.9401 22.3776 14.9401 36.3151C14.9401 49.6276 23.6901 56.8776 37.1276 56.8776C41.6901 56.8776 44.7526 56.3776 49.4375 54.8151L50.4427 59C45.8177 60.5026 40.875 60.9375 37.0651 60.9375C19.4401 60.9375 10 51.25 10 36.3125C10 21.25 20.9401 11 36.0026 11C51.6901 11 60 20.375 60 31.875C60 41.625 56.9401 49.0625 47.3151 49.0625C42.9375 49.0625 40.0651 47.3125 39.6901 43.4349C38.5651 47.7474 35.5651 49.0625 31.5 49.0625C26.0625 49.0625 21.5 44.8724 21.5 36.4375C21.5 27.9375 25.5026 22.6875 32.6901 22.6875C36.5026 22.6875 38.8776 24.1875 39.9349 26.5625L41.75 23.25H47V41.6276H47.0052ZM39.3203 33.3776C39.3203 29.9427 36.7552 28.5026 34.6302 28.5026C32.3177 28.5026 29.7578 30.375 29.7578 35.8776C29.7578 40.2526 31.6953 42.6901 34.6302 42.6901C36.6927 42.6901 39.3203 41.3776 39.3203 37.7526V33.3776Z" fill="black"/>
</svg>
