<svg width="30" height="30" viewBox="0 0 30 30" fill="none" xmlns="http://www.w3.org/2000/svg">
<rect width="30" height="30" rx="3" fill="#FF3F26"/>
<path d="M14 11C14 13.21 12.21 15 10 15C7.79 15 6 13.21 6 11C6 8.79 7.79 7 10 7C12.21 7 14 8.79 14 11ZM14 17.72V23H3V21C3 18.79 6.13 17 10 17C11.5 17 12.87 17.27 14 17.72V17.72ZM27 23H16V6H27V23ZM19 14.5C19 13.837 19.2634 13.2011 19.7322 12.7322C20.2011 12.2634 20.837 12 21.5 12C22.163 12 22.7989 12.2634 23.2678 12.7322C23.7366 13.2011 24 13.837 24 14.5C24 15.163 23.7366 15.7989 23.2678 16.2678C22.7989 16.7366 22.163 17 21.5 17C20.837 17 20.2011 16.7366 19.7322 16.2678C19.2634 15.7989 19 15.163 19 14.5V14.5ZM25 10C24.4696 10 23.9609 9.78929 23.5858 9.41421C23.2107 9.03914 23 8.53043 23 8H20C20 9.11 19.11 10 18 10V19C18.5304 19 19.0391 19.2107 19.4142 19.5858C19.7893 19.9609 20 20.4696 20 21H23C23 19.9 23.9 19 25 19V10Z" fill="#424242"/>
</svg>
