<svg width="30" height="30" viewBox="0 0 30 30" fill="none" xmlns="http://www.w3.org/2000/svg">
<path d="M25 0H5C3.67392 0 2.40215 0.526784 1.46447 1.46447C0.526784 2.40215 0 3.67392 0 5V25C0 26.3261 0.526784 27.5979 1.46447 28.5355C2.40215 29.4732 3.67392 30 5 30H25C26.3261 30 27.5979 29.4732 28.5355 28.5355C29.4732 27.5979 30 26.3261 30 25V5C30 3.67392 29.4732 2.40215 28.5355 1.46447C27.5979 0.526784 26.3261 0 25 0ZM8.33333 6.66667C8.82779 6.66667 9.31114 6.81329 9.72226 7.08799C10.1334 7.3627 10.4538 7.75314 10.643 8.20996C10.8323 8.66677 10.8818 9.16944 10.7853 9.65439C10.6888 10.1393 10.4507 10.5848 10.1011 10.9344C9.75147 11.2841 9.30601 11.5222 8.82106 11.6186C8.33611 11.7151 7.83344 11.6656 7.37662 11.4764C6.91981 11.2871 6.52936 10.9667 6.25466 10.5556C5.97996 10.1445 5.83333 9.66112 5.83333 9.16667C5.83333 8.50363 6.09672 7.86774 6.56557 7.3989C7.03441 6.93006 7.67029 6.66667 8.33333 6.66667V6.66667ZM26.6667 24.7167C26.7035 25.1961 26.5487 25.6706 26.2363 26.0361C25.9239 26.4016 25.4793 26.6284 25 26.6667H5L17.6167 15.3C17.8285 15.1068 18.1049 14.9996 18.3917 14.9996C18.6784 14.9996 18.9548 15.1068 19.1667 15.3L26.6667 22.7667V24.7167Z" fill="#FF3F26"/>
</svg>
