<svg width="30" height="30" viewBox="0 0 30 30" fill="none" xmlns="http://www.w3.org/2000/svg">
<rect width="30" height="30" rx="3" fill="#FF3F26"/>
<path d="M7.90909 9H22.0909C22.8669 9 23.6353 9.15284 24.3522 9.4498C25.0691 9.74676 25.7206 10.182 26.2693 10.7307C26.818 11.2794 27.2532 11.9309 27.5502 12.6478C27.8472 13.3647 28 14.1331 28 14.9091C28 15.6851 27.8472 16.4535 27.5502 17.1704C27.2532 17.8873 26.818 18.5387 26.2693 19.0874C25.7206 19.6362 25.0691 20.0714 24.3522 20.3684C23.6353 20.6653 22.8669 20.8182 22.0909 20.8182C20.1527 20.8182 18.4391 19.8845 17.3636 18.4545H12.6364C11.5609 19.8845 9.84727 20.8182 7.90909 20.8182C7.1331 20.8182 6.3647 20.6653 5.64778 20.3684C4.93086 20.0714 4.27944 19.6362 3.73073 19.0874C2.62256 17.9793 2 16.4763 2 14.9091C2 13.3419 2.62256 11.8389 3.73073 10.7307C4.8389 9.62256 6.3419 9 7.90909 9V9ZM24.1591 11.9545C23.7673 11.9545 23.3915 12.1102 23.1145 12.3872C22.8375 12.6643 22.6818 13.04 22.6818 13.4318C22.6818 13.6258 22.72 13.8179 22.7943 13.9971C22.8685 14.1764 22.9773 14.3392 23.1145 14.4764C23.2517 14.6136 23.4145 14.7224 23.5938 14.7966C23.773 14.8709 23.9651 14.9091 24.1591 14.9091C24.3531 14.9091 24.5452 14.8709 24.7244 14.7966C24.9036 14.7224 25.0665 14.6136 25.2037 14.4764C25.3409 14.3392 25.4497 14.1764 25.5239 13.9971C25.5982 13.8179 25.6364 13.6258 25.6364 13.4318C25.6364 13.04 25.4807 12.6643 25.2037 12.3872C24.9266 12.1102 24.5509 11.9545 24.1591 11.9545ZM21.2045 14.9091C20.8127 14.9091 20.437 15.0647 20.16 15.3418C19.8829 15.6188 19.7273 15.9946 19.7273 16.3864C19.7273 16.7782 19.8829 17.1539 20.16 17.431C20.437 17.708 20.8127 17.8636 21.2045 17.8636C21.5963 17.8636 21.9721 17.708 22.2491 17.431C22.5262 17.1539 22.6818 16.7782 22.6818 16.3864C22.6818 15.9946 22.5262 15.6188 22.2491 15.3418C21.9721 15.0647 21.5963 14.9091 21.2045 14.9091V14.9091ZM6.72727 11.3636V13.7273H4.36364V16.0909H6.72727V18.4545H9.09091V16.0909H11.4545V13.7273H9.09091V11.3636H6.72727Z" fill="#424242"/>
</svg>
