<svg width="70" height="70" viewBox="0 0 70 70" fill="none" xmlns="http://www.w3.org/2000/svg">
<path d="M35 14.1875C23.6406 14.1875 14.4062 23.4219 14.3906 34.7812C14.3906 38.6719 15.4844 42.4688 17.5469 45.7344L18.0312 46.5156L15.9531 54.1094L23.75 52.0625L24.5 52.5156C27.6562 54.3906 31.2812 55.3906 34.9844 55.3906H35C46.3438 55.3906 55.8281 46.1562 55.8281 34.7969C55.8281 29.2969 53.4531 24.125 49.5625 20.2344C45.6562 16.3281 40.5 14.1875 35 14.1875ZM47.1094 43.625C46.5938 45.0781 44.125 46.3906 42.9375 46.5625C40.9687 46.8594 39.4375 46.7031 35.5156 45.0156C29.3125 42.3281 25.25 36.0781 24.9375 35.6719C24.625 35.2656 22.4062 32.3125 22.4062 29.2656C22.4062 26.2188 24 24.7188 24.5781 24.0938C25.1406 23.4688 25.8125 23.3125 26.2344 23.3125C26.6406 23.3125 27.0625 23.3125 27.4219 23.3281C27.7969 23.3438 28.3125 23.1875 28.8125 24.3906C29.3281 25.625 30.5625 28.6719 30.7188 28.9844C30.875 29.2969 30.9844 29.6562 30.7656 30.0625C29.5781 32.4375 28.3125 32.3438 28.9531 33.4375C31.3438 37.5469 33.7344 38.9688 37.375 40.7969C38 41.1094 38.3594 41.0625 38.7188 40.6406C39.0781 40.2344 40.2656 38.8281 40.6719 38.2188C41.0781 37.5938 41.5 37.7031 42.0625 37.9062C42.625 38.1094 45.6719 39.6094 46.2969 39.9219C46.9219 40.2344 47.3281 40.3906 47.4844 40.6406C47.625 40.9375 47.625 42.1875 47.1094 43.625ZM62.5 0H7.5C3.35938 0 0 3.35938 0 7.5V62.5C0 66.6406 3.35938 70 7.5 70H62.5C66.6406 70 70 66.6406 70 62.5V7.5C70 3.35938 66.6406 0 62.5 0ZM34.9844 59.5625C30.8281 59.5625 26.75 58.5156 23.1406 56.5469L10 60L13.5156 47.1562C11.3438 43.4062 10.2031 39.1406 10.2031 34.7656C10.2188 21.1094 21.3281 10 34.9844 10C41.6094 10 47.8281 12.5781 52.5156 17.2656C57.1875 21.9531 60 28.1719 60 34.7969C60 48.4531 48.6406 59.5625 34.9844 59.5625Z" fill="#F9FAFB"/>
</svg>
